<svg width="12" height="12" viewBox="0 0 12 12" fill="none" xmlns="http://www.w3.org/2000/svg">
<path d="M8.33338 7.33333H7.80672L7.62005 7.15333C8.42005 6.22 8.83338 4.94667 8.60672 3.59333C8.29338 1.74 6.74672 0.260001 4.88005 0.0333346C2.06005 -0.313332 -0.313282 2.06 0.0333842 4.88C0.260051 6.74667 1.74005 8.29333 3.59338 8.60667C4.94672 8.83333 6.22005 8.42 7.15338 7.62L7.33338 7.80667V8.33333L10.1667 11.1667C10.4401 11.44 10.8867 11.44 11.1601 11.1667C11.4334 10.8933 11.4334 10.4467 11.1601 10.1733L8.33338 7.33333ZM4.33338 7.33333C2.67338 7.33333 1.33338 5.99333 1.33338 4.33333C1.33338 2.67333 2.67338 1.33333 4.33338 1.33333C5.99338 1.33333 7.33338 2.67333 7.33338 4.33333C7.33338 5.99333 5.99338 7.33333 4.33338 7.33333Z" fill="#666666"/>
</svg>
